<svg width="483" height="293" viewBox="0 0 483 293" fill="none" xmlns="http://www.w3.org/2000/svg">
<g opacity="0.7" filter="url(#filter0_d_53_1096)">
<rect x="6" width="471" height="280" rx="30" fill="#AB875F"/>
</g>
<rect x="28" y="20" width="427" height="240" rx="30" fill="white"/>
<path d="M6 30C6 13.4315 19.4315 0 36 0H447C463.569 0 477 13.4315 477 30V73H6V30Z" fill="#C1A689"/>
<path d="M6 30C6 13.4315 19.4315 0 36 0H447C463.569 0 477 13.4315 477 30V73H6V30Z" fill="#C1A689"/>
<path d="M65.5254 23.2109H81.7095V26.1846H68.9434V33.1914H78.8042V36.0625H68.9434V47H65.5254V23.2109ZM97.4834 42.6763V29.3633H100.901V47H97.8252L97.5176 45.1372C95.8314 46.5614 93.9686 47.2734 91.9292 47.2734C89.7645 47.2734 88.2321 46.6753 87.332 45.479C86.3978 44.2599 85.9307 42.1579 85.9307 39.1729V29.3633H89.3486V39.002C89.3486 41.1097 89.6506 42.5452 90.2544 43.3086C90.7899 43.9922 91.8096 44.334 93.3135 44.334C94.8288 44.334 96.2188 43.7814 97.4834 42.6763ZM107.156 21.5703H110.574V40.3179C110.574 42.5737 111.087 43.901 112.112 44.2998C112.454 44.4365 112.819 44.5049 113.206 44.5049C113.593 44.5049 113.941 44.4593 114.249 44.3682V47L113.616 47.0684C113.411 47.0911 113.212 47.1025 113.018 47.1025C110.831 47.1025 109.253 46.3848 108.284 44.9492C107.532 43.8213 107.156 42.2832 107.156 40.335V21.5703ZM118.846 21.5703H122.264V40.3179C122.264 42.5737 122.776 43.901 123.802 44.2998C124.144 44.4365 124.508 44.5049 124.896 44.5049C125.283 44.5049 125.63 44.4593 125.938 44.3682V47L125.306 47.0684C125.101 47.0911 124.901 47.1025 124.708 47.1025C122.52 47.1025 120.942 46.3848 119.974 44.9492C119.222 43.8213 118.846 42.2832 118.846 40.335V21.5703ZM141.712 23.2109H147.71C151.641 23.2109 154.176 24.3446 155.315 26.6118C155.737 27.4663 155.948 28.3151 155.948 29.1582C155.948 30.0013 155.857 30.6735 155.674 31.1748C155.503 31.6647 155.27 32.1147 154.974 32.5249C154.415 33.2996 153.675 33.9604 152.752 34.5073V34.5757C154.461 35.0656 155.72 35.9258 156.529 37.1562C157.144 38.0905 157.452 39.1273 157.452 40.2666C157.452 41.4059 157.224 42.3914 156.768 43.2231C156.324 44.0549 155.703 44.7498 154.905 45.3081C153.276 46.436 151.1 47 148.377 47H141.712V23.2109ZM148.36 33.5845C150.194 33.5845 151.43 32.861 152.068 31.4141C152.285 30.9014 152.393 30.3317 152.393 29.7051C152.393 29.0671 152.313 28.5202 152.154 28.0645C151.994 27.5973 151.738 27.1986 151.385 26.8682C150.633 26.1618 149.499 25.8086 147.984 25.8086H145.13V33.5845H148.36ZM153.897 40.335C153.897 37.5664 152.234 36.1821 148.907 36.1821H145.13V44.4023H148.377C150.883 44.4023 152.575 43.6447 153.453 42.1294C153.749 41.6167 153.897 41.0186 153.897 40.335ZM160.75 38.1475C160.75 35.3789 161.633 33.1344 163.399 31.4141C165.051 29.8076 167.096 29.0044 169.534 29.0044C171.927 29.0044 173.926 29.8076 175.533 31.4141C177.242 33.123 178.096 35.3675 178.096 38.1475C178.096 40.916 177.236 43.1491 175.516 44.8467C173.886 46.4645 171.887 47.2734 169.517 47.2734C167.113 47.2734 165.074 46.4645 163.399 44.8467C161.633 43.1491 160.75 40.916 160.75 38.1475ZM164.305 38.1475C164.305 41.0641 165.239 43.0465 167.107 44.0947C167.768 44.4593 168.56 44.6416 169.483 44.6416C170.406 44.6416 171.186 44.4593 171.824 44.0947C172.462 43.7188 172.986 43.2288 173.396 42.625C174.16 41.4629 174.542 39.9704 174.542 38.1475C174.542 35.2536 173.624 33.2712 171.79 32.2002C171.152 31.8242 170.389 31.6362 169.5 31.6362C168.611 31.6362 167.837 31.8242 167.176 32.2002C166.526 32.5648 165.991 33.049 165.569 33.6528C164.726 34.8377 164.305 36.3359 164.305 38.1475ZM184.966 31.2944C185.958 30.5311 187.068 29.9728 188.299 29.6196C189.541 29.2664 190.623 29.0898 191.546 29.0898C192.469 29.0898 193.181 29.1126 193.682 29.1582V21.5703H197.083V47H194.024L193.887 44.9663C193.192 45.8892 192.138 46.5728 190.726 47.0171C190.179 47.188 189.62 47.2734 189.051 47.2734C188.493 47.2734 187.94 47.2165 187.393 47.1025C186.846 46.9886 186.299 46.8006 185.752 46.5386C185.217 46.2651 184.704 45.9119 184.214 45.479C183.724 45.0347 183.286 44.4935 182.898 43.8555C182.078 42.4541 181.668 40.7964 181.668 38.8823C181.668 36.9683 181.97 35.4188 182.574 34.2339C183.189 33.0376 183.986 32.0578 184.966 31.2944ZM187.034 33.3281C186.453 33.875 186.003 34.5814 185.684 35.4473C185.376 36.3018 185.223 37.3442 185.223 38.5747C185.223 39.7938 185.371 40.8021 185.667 41.5996C185.963 42.3857 186.333 43.001 186.778 43.4453C187.564 44.2428 188.51 44.6416 189.615 44.6416C191.039 44.6416 192.218 44.1175 193.152 43.0693C193.392 42.8073 193.562 42.5737 193.665 42.3687V31.8584L193.323 31.8242C192.799 31.7559 192.173 31.7217 191.443 31.7217C190.726 31.7217 189.957 31.8527 189.136 32.1147C188.316 32.3654 187.615 32.7699 187.034 33.3281ZM201.971 51.375C202.278 51.4661 202.694 51.5117 203.218 51.5117C203.754 51.5117 204.301 51.4035 204.859 51.187C205.417 50.9819 205.901 50.6914 206.312 50.3154C206.995 49.7002 207.616 48.7318 208.174 47.4102L200.928 29.3633H204.568L209.661 43.4111L214.224 29.3633H217.83L210.584 49.1704C210.037 50.6515 209.279 51.7852 208.311 52.5713C207.035 53.5967 205.332 54.1094 203.201 54.1094C203.007 54.1094 202.808 54.098 202.603 54.0752L201.971 54.0068V51.375ZM232.151 23.2109H238.902C243.402 23.2109 246.302 24.5439 247.601 27.21C248.068 28.1898 248.301 29.2949 248.301 30.5254C248.301 31.7445 248.136 32.7756 247.806 33.6187C247.487 34.4618 247.037 35.1852 246.456 35.7891C245.339 36.9512 243.801 37.7145 241.841 38.0791C242.65 40.5742 244.023 42.2946 245.96 43.2402C246.598 43.5592 247.133 43.7301 247.566 43.7529C248.296 43.7757 248.808 43.7529 249.104 43.6846V47H248.335C245.772 47 243.59 46.0885 241.79 44.2656C240.206 42.682 239.141 40.6882 238.594 38.2842H235.569V47H232.151V23.2109ZM238.68 35.5498C240.742 35.5498 242.269 35.151 243.26 34.3535C244.251 33.556 244.747 32.3141 244.747 30.6279C244.747 28.3835 243.704 26.9365 241.619 26.2871C240.89 26.0592 240.007 25.9453 238.97 25.9453H235.569V35.5498H238.68ZM260.572 47.2734C254.123 47.2734 250.899 44.1232 250.899 37.8228C250.899 35.1112 251.793 32.9408 253.582 31.3115C255.188 29.8304 257.023 29.0898 259.085 29.0898C261.329 29.0898 263.084 29.8418 264.349 31.3457C265.522 32.7471 266.109 34.6213 266.109 36.9683V38.3013H254.454C254.454 41.5256 255.77 43.4966 258.401 44.2144C259.028 44.3853 259.991 44.4707 261.29 44.4707C262.6 44.4707 263.882 44.2941 265.135 43.9409V46.8291C263.882 47.1253 262.361 47.2734 260.572 47.2734ZM262.691 35.7891C262.691 34.6953 262.389 33.7725 261.785 33.0205C261.079 32.1546 260.105 31.7217 258.863 31.7217C257.553 31.7217 256.487 32.1375 255.667 32.9692C254.915 33.744 254.539 34.6839 254.539 35.7891H262.691ZM278.824 24.1338C278.414 23.9971 277.844 23.9287 277.115 23.9287C276.386 23.9287 275.805 23.9971 275.372 24.1338C274.95 24.2705 274.614 24.4699 274.363 24.7319C273.93 25.1991 273.714 25.9624 273.714 27.022V29.3633H278.123V31.978H273.714V47H270.296V31.978H268.177V30.3716L270.296 29.3633V27.4834C270.296 26.2871 270.398 25.387 270.604 24.7832C270.82 24.1794 271.076 23.6781 271.373 23.2793C271.669 22.8805 272.068 22.533 272.569 22.2368C273.628 21.6102 275.115 21.2969 277.029 21.2969C277.827 21.2969 278.425 21.3424 278.824 21.4336V24.1338ZM282.293 21.5703H285.711V40.3179C285.711 42.5737 286.224 43.901 287.249 44.2998C287.591 44.4365 287.955 44.5049 288.343 44.5049C288.73 44.5049 289.078 44.4593 289.385 44.3682V47L288.753 47.0684C288.548 47.0911 288.348 47.1025 288.155 47.1025C285.967 47.1025 284.389 46.3848 283.421 44.9492C282.669 43.8213 282.293 42.2832 282.293 40.335V21.5703ZM301.485 47.2734C295.036 47.2734 291.812 44.1232 291.812 37.8228C291.812 35.1112 292.706 32.9408 294.495 31.3115C296.102 29.8304 297.936 29.0898 299.998 29.0898C302.243 29.0898 303.997 29.8418 305.262 31.3457C306.435 32.7471 307.022 34.6213 307.022 36.9683V38.3013H295.367C295.367 41.5256 296.683 43.4966 299.314 44.2144C299.941 44.3853 300.904 44.4707 302.203 44.4707C303.513 44.4707 304.795 44.2941 306.048 43.9409V46.8291C304.795 47.1253 303.274 47.2734 301.485 47.2734ZM303.604 35.7891C303.604 34.6953 303.302 33.7725 302.698 33.0205C301.992 32.1546 301.018 31.7217 299.776 31.7217C298.466 31.7217 297.4 32.1375 296.58 32.9692C295.828 33.744 295.452 34.6839 295.452 35.7891H303.604ZM314.952 38.1475L308.885 29.3633H312.764L316.968 35.7378L321.463 29.3633H325.291L318.729 38.1304L325.137 47H321.275L316.78 40.5742L312.371 47H308.492L314.952 38.1475ZM327.171 38.1475C327.171 35.3789 328.054 33.1344 329.82 31.4141C331.472 29.8076 333.517 29.0044 335.955 29.0044C338.348 29.0044 340.347 29.8076 341.954 31.4141C343.663 33.123 344.517 35.3675 344.517 38.1475C344.517 40.916 343.657 43.1491 341.937 44.8467C340.307 46.4645 338.308 47.2734 335.938 47.2734C333.534 47.2734 331.495 46.4645 329.82 44.8467C328.054 43.1491 327.171 40.916 327.171 38.1475ZM330.726 38.1475C330.726 41.0641 331.66 43.0465 333.528 44.0947C334.189 44.4593 334.981 44.6416 335.904 44.6416C336.827 44.6416 337.607 44.4593 338.245 44.0947C338.883 43.7188 339.407 43.2288 339.817 42.625C340.581 41.4629 340.962 39.9704 340.962 38.1475C340.962 35.2536 340.045 33.2712 338.211 32.2002C337.573 31.8242 336.81 31.6362 335.921 31.6362C335.032 31.6362 334.257 31.8242 333.597 32.2002C332.947 32.5648 332.412 33.049 331.99 33.6528C331.147 34.8377 330.726 36.3359 330.726 38.1475ZM349.456 21.5703H352.874V40.3179C352.874 42.5737 353.387 43.901 354.412 44.2998C354.754 44.4365 355.118 44.5049 355.506 44.5049C355.893 44.5049 356.241 44.4593 356.548 44.3682V47L355.916 47.0684C355.711 47.0911 355.512 47.1025 355.318 47.1025C353.13 47.1025 351.552 46.3848 350.584 44.9492C349.832 43.8213 349.456 42.2832 349.456 40.335V21.5703ZM359.266 38.1475C359.266 35.3789 360.149 33.1344 361.915 31.4141C363.567 29.8076 365.612 29.0044 368.05 29.0044C370.442 29.0044 372.442 29.8076 374.048 31.4141C375.757 33.123 376.612 35.3675 376.612 38.1475C376.612 40.916 375.752 43.1491 374.031 44.8467C372.402 46.4645 370.403 47.2734 368.033 47.2734C365.629 47.2734 363.589 46.4645 361.915 44.8467C360.149 43.1491 359.266 40.916 359.266 38.1475ZM362.82 38.1475C362.82 41.0641 363.755 43.0465 365.623 44.0947C366.284 44.4593 367.076 44.6416 367.999 44.6416C368.921 44.6416 369.702 44.4593 370.34 44.0947C370.978 43.7188 371.502 43.2288 371.912 42.625C372.675 41.4629 373.057 39.9704 373.057 38.1475C373.057 35.2536 372.14 33.2712 370.306 32.2002C369.668 31.8242 368.904 31.6362 368.016 31.6362C367.127 31.6362 366.352 31.8242 365.691 32.2002C365.042 32.5648 364.507 33.049 364.085 33.6528C363.242 34.8377 362.82 36.3359 362.82 38.1475ZM390.848 53.7334C389.856 53.984 388.58 54.1094 387.02 54.1094C385.47 54.1094 384.336 53.9954 383.619 53.7676V50.7256C384.519 51.113 385.618 51.3066 386.917 51.3066C388.227 51.318 389.19 51.2326 389.805 51.0503C390.42 50.868 390.905 50.5718 391.258 50.1616C391.896 49.4211 392.215 48.0824 392.215 46.1455V45.2397C391.349 46.1056 390.21 46.7095 388.797 47.0513C388.227 47.188 387.658 47.2563 387.088 47.2563C386.518 47.2563 385.96 47.1937 385.413 47.0684C384.878 46.943 384.342 46.7437 383.807 46.4702C383.271 46.1854 382.758 45.8208 382.269 45.3765C381.779 44.9207 381.346 44.3568 380.97 43.6846C380.127 42.2262 379.705 40.4318 379.705 38.3013C379.682 36.3302 380.252 34.5985 381.414 33.106C382.417 31.8071 383.795 30.7988 385.55 30.0811C387.145 29.4202 388.871 29.0898 390.728 29.0898C392.585 29.0898 394.22 29.181 395.633 29.3633V46.1455C395.633 50.4066 394.038 52.9359 390.848 53.7334ZM392.215 31.8584C391.486 31.7673 390.768 31.7217 390.062 31.7217C389.355 31.7217 388.563 31.8527 387.686 32.1147C386.809 32.3768 386.04 32.7756 385.379 33.311C383.932 34.4845 383.208 36.1479 383.208 38.3013C383.208 40.6369 383.772 42.3402 384.9 43.4111C385.743 44.2201 386.775 44.6245 387.994 44.6245C389.463 44.6245 390.7 44.1061 391.702 43.0693C391.941 42.8073 392.112 42.5737 392.215 42.3687V31.8584ZM400.486 51.375C400.794 51.4661 401.21 51.5117 401.734 51.5117C402.269 51.5117 402.816 51.4035 403.375 51.187C403.933 50.9819 404.417 50.6914 404.827 50.3154C405.511 49.7002 406.132 48.7318 406.69 47.4102L399.444 29.3633H403.084L408.177 43.4111L412.74 29.3633H416.346L409.1 49.1704C408.553 50.6515 407.795 51.7852 406.827 52.5713C405.551 53.5967 403.847 54.1094 401.717 54.1094C401.523 54.1094 401.324 54.098 401.119 54.0752L400.486 54.0068V51.375Z" fill="white"/>
<path d="M143.912 102.261C142.818 101.919 141.491 101.749 139.93 101.749C138.369 101.749 137.053 101.948 135.982 102.347C134.911 102.734 134.023 103.281 133.316 103.987C131.926 105.366 131.231 107.246 131.231 109.627C132.553 108.659 134.125 107.998 135.948 107.645C136.586 107.531 137.372 107.474 138.307 107.474C139.241 107.474 140.204 107.633 141.195 107.952C142.197 108.26 143.058 108.715 143.775 109.319C145.268 110.607 146.014 112.418 146.014 114.754C146.014 117.181 145.063 119.078 143.16 120.445C141.463 121.664 139.435 122.273 137.076 122.273C134.057 122.273 131.744 121.282 130.138 119.3C128.588 117.409 127.813 114.777 127.813 111.404V110.362C127.813 106.853 128.919 104.033 131.129 101.902C133.316 99.806 136.205 98.7578 139.793 98.7578H140.836C142.203 98.7578 143.229 98.8205 143.912 98.9458V102.261ZM131.266 112.208C131.266 115.625 132.342 117.91 134.496 119.061C135.248 119.471 136.079 119.676 136.991 119.676C137.902 119.676 138.688 119.573 139.349 119.368C140.021 119.152 140.608 118.844 141.109 118.445C142.169 117.568 142.699 116.395 142.699 114.925C142.699 113.455 142.197 112.287 141.195 111.421C140.192 110.544 138.836 110.105 137.127 110.105C135.361 110.105 133.715 110.573 132.188 111.507C131.79 111.757 131.482 111.991 131.266 112.208ZM150.68 110.55C150.68 106.813 151.557 103.902 153.312 101.817C155.032 99.7775 157.379 98.7578 160.353 98.7578C163.281 98.7578 165.582 99.7775 167.257 101.817C168.989 103.913 169.854 106.824 169.854 110.55C169.854 114.275 168.989 117.175 167.257 119.249C165.582 121.265 163.281 122.273 160.353 122.273C157.379 122.273 155.032 121.265 153.312 119.249C151.557 117.186 150.68 114.287 150.68 110.55ZM160.318 119.676C161.492 119.676 162.46 119.437 163.224 118.958C163.987 118.479 164.591 117.83 165.035 117.01C165.855 115.506 166.266 113.358 166.266 110.567C166.266 106.192 165.252 103.361 163.224 102.073C162.46 101.595 161.503 101.355 160.353 101.355C158.199 101.355 156.616 102.256 155.602 104.056C154.713 105.628 154.269 107.787 154.269 110.533C154.269 116.628 156.285 119.676 160.318 119.676ZM189.696 108.755L189.713 122H186.295V104.363H189.439L189.679 106.294C190.932 105.246 192.39 104.563 194.054 104.244C194.589 104.141 195.113 104.09 195.626 104.09C197.757 104.09 199.363 104.99 200.445 106.79C202.428 104.99 204.501 104.09 206.666 104.09C208.808 104.09 210.369 104.734 211.349 106.021C212.328 107.331 212.818 109.496 212.818 112.515V122H209.4V112.635C209.4 109.673 208.688 107.901 207.264 107.32C206.786 107.126 206.227 107.029 205.589 107.029C204.063 107.029 202.661 107.576 201.385 108.67V122H197.967V112.498C197.967 110.47 197.665 109.046 197.062 108.226C196.48 107.428 195.438 107.029 193.934 107.029C192.442 107.029 191.029 107.605 189.696 108.755ZM222.286 99.2363C222.286 99.8857 222.07 100.387 221.637 100.74C221.215 101.082 220.685 101.253 220.047 101.253C219.409 101.253 218.88 101.082 218.458 100.74C218.048 100.387 217.843 99.8857 217.843 99.2363C217.843 98.5755 218.048 98.0742 218.458 97.7324C218.88 97.3906 219.409 97.2197 220.047 97.2197C220.685 97.2197 221.215 97.3906 221.637 97.7324C222.07 98.0742 222.286 98.5755 222.286 99.2363ZM218.287 104.363H221.705V122H218.287V104.363ZM235.035 107.029C233.338 107.029 231.828 107.605 230.506 108.755V122H227.088V104.363H230.25L230.489 106.277C232.346 104.819 234.266 104.09 236.249 104.09C238.345 104.09 239.883 104.716 240.863 105.97C241.888 107.291 242.401 109.422 242.401 112.361V122H238.983V112.361C238.983 109.536 238.22 107.85 236.693 107.303C236.203 107.12 235.65 107.029 235.035 107.029ZM260.909 122.427C260.226 122.427 259.656 122.245 259.2 121.88C258.756 121.504 258.534 120.969 258.534 120.274C258.534 119.568 258.756 119.026 259.2 118.65C259.656 118.274 260.226 118.086 260.909 118.086C261.604 118.086 262.18 118.274 262.635 118.65C263.091 119.026 263.319 119.568 263.319 120.274C263.319 120.969 263.091 121.504 262.635 121.88C262.18 122.245 261.604 122.427 260.909 122.427ZM260.909 108.362C260.226 108.362 259.656 108.18 259.2 107.815C258.756 107.439 258.534 106.904 258.534 106.209C258.534 105.503 258.756 104.961 259.2 104.585C259.656 104.209 260.226 104.021 260.909 104.021C261.604 104.021 262.18 104.209 262.635 104.585C263.091 104.961 263.319 105.503 263.319 106.209C263.319 106.904 263.091 107.439 262.635 107.815C262.18 108.18 261.604 108.362 260.909 108.362ZM285.262 103.458L279.127 107.645V104.192L286.766 98.7578H288.663V122H285.262V103.458ZM292.474 115.027L301.959 98.7578H305.992L297.311 113.301H305.497V108.55H308.949V113.301H310.897V116.309H308.949V122H305.497V116.309H292.474V115.027ZM314.059 110.55C314.059 106.813 314.936 103.902 316.69 101.817C318.411 99.7775 320.758 98.7578 323.731 98.7578C326.66 98.7578 328.961 99.7775 330.636 101.817C332.368 103.913 333.233 106.824 333.233 110.55C333.233 114.275 332.368 117.175 330.636 119.249C328.961 121.265 326.66 122.273 323.731 122.273C320.758 122.273 318.411 121.265 316.69 119.249C314.936 117.186 314.059 114.287 314.059 110.55ZM323.697 119.676C324.871 119.676 325.839 119.437 326.603 118.958C327.366 118.479 327.97 117.83 328.414 117.01C329.234 115.506 329.645 113.358 329.645 110.567C329.645 106.192 328.631 103.361 326.603 102.073C325.839 101.595 324.882 101.355 323.731 101.355C321.578 101.355 319.994 102.256 318.98 104.056C318.092 105.628 317.647 107.787 317.647 110.533C317.647 116.628 319.664 119.676 323.697 119.676ZM338.189 96.5874H341.607V112.259L348.751 104.363H352.818L345.213 112.361L353.211 122H349.042L341.607 113.011V122H338.189V96.5874ZM119.422 162.787C120.516 163.129 121.843 163.3 123.404 163.3C124.965 163.3 126.281 163.106 127.352 162.719C128.423 162.32 129.312 161.767 130.018 161.061C131.408 159.682 132.103 157.803 132.103 155.421C130.781 156.39 129.209 157.051 127.386 157.404C126.748 157.518 125.962 157.575 125.028 157.575C124.094 157.575 123.125 157.421 122.123 157.113C121.131 156.794 120.277 156.333 119.559 155.729C118.067 154.442 117.32 152.63 117.32 150.294C117.32 147.868 118.272 145.971 120.174 144.604C121.872 143.384 123.9 142.775 126.258 142.775C129.278 142.775 131.59 143.766 133.197 145.749C134.746 147.64 135.521 150.272 135.521 153.644V154.687C135.521 158.196 134.416 161.015 132.206 163.146C130.018 165.242 127.13 166.291 123.541 166.291H122.499C121.131 166.291 120.106 166.228 119.422 166.103V162.787ZM132.069 152.841C132.069 149.423 130.992 147.139 128.839 145.988C128.087 145.578 127.255 145.373 126.344 145.373C125.432 145.373 124.64 145.481 123.968 145.697C123.307 145.902 122.726 146.204 122.225 146.603C121.166 147.48 120.636 148.654 120.636 150.124C120.636 151.593 121.137 152.767 122.14 153.644C123.142 154.51 124.498 154.943 126.207 154.943C127.973 154.943 129.619 154.476 131.146 153.542C131.545 153.291 131.852 153.057 132.069 152.841ZM140.46 154.55C140.46 150.813 141.337 147.902 143.092 145.817C144.812 143.778 147.159 142.758 150.133 142.758C153.061 142.758 155.362 143.778 157.037 145.817C158.769 147.913 159.635 150.824 159.635 154.55C159.635 158.275 158.769 161.175 157.037 163.249C155.362 165.265 153.061 166.273 150.133 166.273C147.159 166.273 144.812 165.265 143.092 163.249C141.337 161.186 140.46 158.287 140.46 154.55ZM150.099 163.676C151.272 163.676 152.241 163.437 153.004 162.958C153.767 162.479 154.371 161.83 154.815 161.01C155.636 159.506 156.046 157.358 156.046 154.567C156.046 150.192 155.032 147.361 153.004 146.073C152.241 145.595 151.284 145.355 150.133 145.355C147.979 145.355 146.396 146.256 145.382 148.056C144.493 149.628 144.049 151.787 144.049 154.533C144.049 160.628 146.065 163.676 150.099 163.676ZM179.476 152.755L179.493 166H176.075V148.363H179.22L179.459 150.294C180.712 149.246 182.171 148.563 183.834 148.244C184.369 148.141 184.894 148.09 185.406 148.09C187.537 148.09 189.143 148.99 190.226 150.79C192.208 148.99 194.282 148.09 196.446 148.09C198.588 148.09 200.149 148.734 201.129 150.021C202.109 151.331 202.599 153.496 202.599 156.515V166H199.181V156.635C199.181 153.673 198.469 151.901 197.044 151.32C196.566 151.126 196.008 151.029 195.37 151.029C193.843 151.029 192.442 151.576 191.166 152.67V166H187.748V156.498C187.748 154.47 187.446 153.046 186.842 152.226C186.261 151.428 185.218 151.029 183.714 151.029C182.222 151.029 180.809 151.605 179.476 152.755ZM212.066 143.236C212.066 143.886 211.85 144.387 211.417 144.74C210.995 145.082 210.466 145.253 209.828 145.253C209.19 145.253 208.66 145.082 208.238 144.74C207.828 144.387 207.623 143.886 207.623 143.236C207.623 142.576 207.828 142.074 208.238 141.732C208.66 141.391 209.19 141.22 209.828 141.22C210.466 141.22 210.995 141.391 211.417 141.732C211.85 142.074 212.066 142.576 212.066 143.236ZM208.067 148.363H211.485V166H208.067V148.363ZM224.815 151.029C223.118 151.029 221.608 151.605 220.287 152.755V166H216.869V148.363H220.03L220.27 150.277C222.127 148.819 224.046 148.09 226.029 148.09C228.125 148.09 229.663 148.716 230.643 149.97C231.668 151.291 232.181 153.422 232.181 156.361V166H228.763V156.361C228.763 153.536 228 151.85 226.473 151.303C225.983 151.12 225.431 151.029 224.815 151.029ZM262.345 166.427C261.661 166.427 261.091 166.245 260.636 165.88C260.191 165.504 259.969 164.969 259.969 164.274C259.969 163.568 260.191 163.026 260.636 162.65C261.091 162.274 261.661 162.086 262.345 162.086C263.04 162.086 263.615 162.274 264.071 162.65C264.527 163.026 264.754 163.568 264.754 164.274C264.754 164.969 264.527 165.504 264.071 165.88C263.615 166.245 263.04 166.427 262.345 166.427ZM262.345 152.362C261.661 152.362 261.091 152.18 260.636 151.815C260.191 151.439 259.969 150.904 259.969 150.209C259.969 149.503 260.191 148.961 260.636 148.585C261.091 148.209 261.661 148.021 262.345 148.021C263.04 148.021 263.615 148.209 264.071 148.585C264.527 148.961 264.754 149.503 264.754 150.209C264.754 150.904 264.527 151.439 264.071 151.815C263.615 152.18 263.04 152.362 262.345 152.362ZM281.28 143.236C283.274 142.917 285.017 142.758 286.51 142.758C288.014 142.758 289.284 142.866 290.321 143.083C291.369 143.299 292.252 143.59 292.97 143.954C293.699 144.307 294.286 144.712 294.73 145.167C295.174 145.623 295.516 146.096 295.755 146.586C296.154 147.383 296.354 148.215 296.354 149.081C296.354 149.947 296.222 150.739 295.96 151.457C295.71 152.163 295.345 152.881 294.867 153.61C294.388 154.339 293.801 155.097 293.106 155.883L290.782 158.446L286.339 162.992H296.336V166H280.699V164.428L287.928 157.096L290.235 154.652C291.523 153.24 292.332 152.043 292.662 151.063C292.844 150.539 292.936 150.044 292.936 149.577C292.936 149.098 292.867 148.648 292.73 148.227C292.594 147.805 292.303 147.418 291.859 147.064C290.822 146.221 289.181 145.8 286.937 145.8C284.693 145.8 282.807 146.039 281.28 146.518V143.236ZM300.934 154.55C300.934 150.813 301.811 147.902 303.565 145.817C305.286 143.778 307.633 142.758 310.606 142.758C313.535 142.758 315.836 143.778 317.511 145.817C319.243 147.913 320.108 150.824 320.108 154.55C320.108 158.275 319.243 161.175 317.511 163.249C315.836 165.265 313.535 166.273 310.606 166.273C307.633 166.273 305.286 165.265 303.565 163.249C301.811 161.186 300.934 158.287 300.934 154.55ZM310.572 163.676C311.746 163.676 312.714 163.437 313.478 162.958C314.241 162.479 314.845 161.83 315.289 161.01C316.109 159.506 316.52 157.358 316.52 154.567C316.52 150.192 315.506 147.361 313.478 146.073C312.714 145.595 311.757 145.355 310.606 145.355C308.453 145.355 306.869 146.256 305.855 148.056C304.967 149.628 304.522 151.787 304.522 154.533C304.522 160.628 306.539 163.676 310.572 163.676ZM324.278 154.55C324.278 150.813 325.156 147.902 326.91 145.817C328.631 143.778 330.978 142.758 333.951 142.758C336.879 142.758 339.181 143.778 340.855 145.817C342.587 147.913 343.453 150.824 343.453 154.55C343.453 158.275 342.587 161.175 340.855 163.249C339.181 165.265 336.879 166.273 333.951 166.273C330.978 166.273 328.631 165.265 326.91 163.249C325.156 161.186 324.278 158.287 324.278 154.55ZM333.917 163.676C335.09 163.676 336.059 163.437 336.822 162.958C337.586 162.479 338.189 161.83 338.634 161.01C339.454 159.506 339.864 157.358 339.864 154.567C339.864 150.192 338.85 147.361 336.822 146.073C336.059 145.595 335.102 145.355 333.951 145.355C331.798 145.355 330.214 146.256 329.2 148.056C328.312 149.628 327.867 151.787 327.867 154.533C327.867 160.628 329.884 163.676 333.917 163.676ZM348.409 140.587H351.827V156.259L358.971 148.363H363.038L355.433 156.361L363.431 166H359.261L351.827 157.011V166H348.409V140.587ZM124.771 191.458L118.636 195.645V192.192L126.275 186.758H128.172V210H124.771V191.458ZM133.915 187.236C135.908 186.917 137.652 186.758 139.144 186.758C140.648 186.758 141.918 186.866 142.955 187.083C144.003 187.299 144.886 187.59 145.604 187.954C146.333 188.307 146.92 188.712 147.364 189.167C147.809 189.623 148.15 190.096 148.39 190.586C148.788 191.383 148.988 192.215 148.988 193.081C148.988 193.947 148.857 194.739 148.595 195.457C148.344 196.163 147.979 196.881 147.501 197.61C147.022 198.339 146.436 199.097 145.741 199.883L143.417 202.446L138.973 206.992H148.971V210H133.333V208.428L140.562 201.096L142.87 198.652C144.157 197.24 144.966 196.043 145.296 195.063C145.479 194.539 145.57 194.044 145.57 193.577C145.57 193.098 145.501 192.648 145.365 192.227C145.228 191.805 144.938 191.418 144.493 191.064C143.456 190.221 141.816 189.8 139.571 189.8C137.327 189.8 135.441 190.039 133.915 190.518V187.236ZM153.568 198.55C153.568 194.813 154.445 191.902 156.2 189.817C157.92 187.778 160.267 186.758 163.241 186.758C166.169 186.758 168.47 187.778 170.145 189.817C171.877 191.913 172.743 194.824 172.743 198.55C172.743 202.275 171.877 205.175 170.145 207.249C168.47 209.265 166.169 210.273 163.241 210.273C160.267 210.273 157.92 209.265 156.2 207.249C154.445 205.186 153.568 202.287 153.568 198.55ZM163.207 207.676C164.38 207.676 165.348 207.437 166.112 206.958C166.875 206.479 167.479 205.83 167.923 205.01C168.744 203.506 169.154 201.358 169.154 198.567C169.154 194.192 168.14 191.361 166.112 190.073C165.348 189.595 164.391 189.355 163.241 189.355C161.087 189.355 159.504 190.256 158.49 192.056C157.601 193.628 157.157 195.787 157.157 198.533C157.157 204.628 159.173 207.676 163.207 207.676ZM192.584 196.755L192.601 210H189.183V192.363H192.328L192.567 194.294C193.82 193.246 195.278 192.563 196.942 192.244C197.477 192.141 198.001 192.09 198.514 192.09C200.645 192.09 202.251 192.99 203.333 194.79C205.316 192.99 207.389 192.09 209.554 192.09C211.696 192.09 213.257 192.734 214.237 194.021C215.217 195.331 215.707 197.496 215.707 200.515V210H212.289V200.635C212.289 197.673 211.576 195.901 210.152 195.32C209.674 195.126 209.116 195.029 208.478 195.029C206.951 195.029 205.549 195.576 204.273 196.67V210H200.855V200.498C200.855 198.47 200.554 197.046 199.95 196.226C199.369 195.428 198.326 195.029 196.822 195.029C195.33 195.029 193.917 195.605 192.584 196.755ZM225.174 187.236C225.174 187.886 224.958 188.387 224.525 188.74C224.103 189.082 223.574 189.253 222.936 189.253C222.298 189.253 221.768 189.082 221.346 188.74C220.936 188.387 220.731 187.886 220.731 187.236C220.731 186.576 220.936 186.074 221.346 185.732C221.768 185.391 222.298 185.22 222.936 185.22C223.574 185.22 224.103 185.391 224.525 185.732C224.958 186.074 225.174 186.576 225.174 187.236ZM221.175 192.363H224.593V210H221.175V192.363ZM237.923 195.029C236.226 195.029 234.716 195.605 233.395 196.755V210H229.977V192.363H233.138L233.377 194.277C235.235 192.819 237.154 192.09 239.137 192.09C241.233 192.09 242.771 192.716 243.751 193.97C244.776 195.291 245.289 197.422 245.289 200.361V210H241.871V200.361C241.871 197.536 241.108 195.85 239.581 195.303C239.091 195.12 238.539 195.029 237.923 195.029ZM263.797 210.427C263.114 210.427 262.544 210.245 262.088 209.88C261.644 209.504 261.422 208.969 261.422 208.274C261.422 207.568 261.644 207.026 262.088 206.65C262.544 206.274 263.114 206.086 263.797 206.086C264.492 206.086 265.068 206.274 265.523 206.65C265.979 207.026 266.207 207.568 266.207 208.274C266.207 208.969 265.979 209.504 265.523 209.88C265.068 210.245 264.492 210.427 263.797 210.427ZM263.797 196.362C263.114 196.362 262.544 196.18 262.088 195.815C261.644 195.439 261.422 194.904 261.422 194.209C261.422 193.503 261.644 192.961 262.088 192.585C262.544 192.209 263.114 192.021 263.797 192.021C264.492 192.021 265.068 192.209 265.523 192.585C265.979 192.961 266.207 193.503 266.207 194.209C266.207 194.904 265.979 195.439 265.523 195.815C265.068 196.18 264.492 196.362 263.797 196.362ZM282.733 187.236C284.727 186.917 286.47 186.758 287.962 186.758C289.466 186.758 290.737 186.866 291.773 187.083C292.822 187.299 293.705 187.59 294.422 187.954C295.152 188.307 295.738 188.712 296.183 189.167C296.627 189.623 296.969 190.096 297.208 190.586C297.607 191.383 297.806 192.215 297.806 193.081C297.806 193.947 297.675 194.739 297.413 195.457C297.162 196.163 296.798 196.881 296.319 197.61C295.841 198.339 295.254 199.097 294.559 199.883L292.235 202.446L287.792 206.992H297.789V210H282.152V208.428L289.381 201.096L291.688 198.652C292.975 197.24 293.784 196.043 294.115 195.063C294.297 194.539 294.388 194.044 294.388 193.577C294.388 193.098 294.32 192.648 294.183 192.227C294.046 191.805 293.756 191.418 293.312 191.064C292.275 190.221 290.634 189.8 288.39 189.8C286.145 189.8 284.26 190.039 282.733 190.518V187.236ZM302.677 206.394C304.226 206.827 306.106 207.043 308.316 207.043C310.527 207.043 312.196 206.69 313.324 205.984C314.463 205.266 315.033 204.127 315.033 202.566C315.033 201.142 314.554 200.105 313.597 199.456C312.492 198.692 310.652 198.311 308.077 198.311H303.309V186.826H317.34V190.039H306.59V195.439H308.59C312.042 195.439 314.554 195.998 316.126 197.114C317.744 198.265 318.553 200.105 318.553 202.634C318.553 204.856 317.744 206.628 316.126 207.949C314.349 209.419 311.74 210.154 308.299 210.154C305.781 210.154 303.907 210.006 302.677 209.709V206.394ZM322.826 198.55C322.826 194.813 323.703 191.902 325.458 189.817C327.178 187.778 329.525 186.758 332.499 186.758C335.427 186.758 337.728 187.778 339.403 189.817C341.135 191.913 342 194.824 342 198.55C342 202.275 341.135 205.175 339.403 207.249C337.728 209.265 335.427 210.273 332.499 210.273C329.525 210.273 327.178 209.265 325.458 207.249C323.703 205.186 322.826 202.287 322.826 198.55ZM332.464 207.676C333.638 207.676 334.606 207.437 335.37 206.958C336.133 206.479 336.737 205.83 337.181 205.01C338.001 203.506 338.412 201.358 338.412 198.567C338.412 194.192 337.398 191.361 335.37 190.073C334.606 189.595 333.649 189.355 332.499 189.355C330.345 189.355 328.762 190.256 327.748 192.056C326.859 193.628 326.415 195.787 326.415 198.533C326.415 204.628 328.431 207.676 332.464 207.676ZM346.957 184.587H350.375V200.259L357.518 192.363H361.585L353.98 200.361L361.979 210H357.809L350.375 201.011V210H346.957V184.587Z" fill="#5B3724"/>
<defs>
<filter id="filter0_d_53_1096" x="0" y="0" width="483" height="293" filterUnits="userSpaceOnUse" color-interpolation-filters="sRGB">
<feFlood flood-opacity="0" result="BackgroundImageFix"/>
<feColorMatrix in="SourceAlpha" type="matrix" values="0 0 0 0 0 0 0 0 0 0 0 0 0 0 0 0 0 0 127 0" result="hardAlpha"/>
<feOffset dy="7"/>
<feGaussianBlur stdDeviation="3"/>
<feComposite in2="hardAlpha" operator="out"/>
<feColorMatrix type="matrix" values="0 0 0 0 0 0 0 0 0 0 0 0 0 0 0 0 0 0 0.4 0"/>
<feBlend mode="normal" in2="BackgroundImageFix" result="effect1_dropShadow_53_1096"/>
<feBlend mode="normal" in="SourceGraphic" in2="effect1_dropShadow_53_1096" result="shape"/>
</filter>
</defs>
</svg>
