<svg width="483" height="302" viewBox="0 0 483 302" fill="none" xmlns="http://www.w3.org/2000/svg">
<g filter="url(#filter0_d_53_1090)">
<g opacity="0.7" filter="url(#filter1_d_53_1090)">
<rect x="6" width="471" height="280" rx="30" fill="#AB875F"/>
</g>
<rect x="28" y="20" width="427" height="240" rx="30" fill="white"/>
<path d="M6 30C6 13.4315 19.4315 0 36 0H447C463.569 0 477 13.4315 477 30V73H6V30Z" fill="#C1A689"/>
<path d="M110.027 35.1396C110.027 33.2826 110.306 31.6021 110.865 30.0981C111.423 28.5942 112.198 27.3125 113.189 26.2529C115.274 24.0426 117.98 22.9375 121.307 22.9375C124.645 22.9375 127.345 24.0426 129.407 26.2529C131.504 28.4974 132.552 31.4596 132.552 35.1396C132.552 38.8197 131.504 41.7705 129.407 43.9922C127.356 46.1797 124.656 47.2734 121.307 47.2734C117.968 47.2734 115.263 46.1797 113.189 43.9922C111.081 41.7591 110.027 38.8083 110.027 35.1396ZM113.445 35.1226C113.445 37.7202 114.078 39.8678 115.342 41.5654C116.766 43.4567 118.755 44.4023 121.307 44.4023C123.859 44.4023 125.841 43.4567 127.254 41.5654C128.507 39.8906 129.134 37.7544 129.134 35.1567C129.134 32.5363 128.507 30.3773 127.254 28.6797C125.841 26.7656 123.859 25.8086 121.307 25.8086C118.743 25.8086 116.755 26.7656 115.342 28.6797C114.078 30.3773 113.445 32.5249 113.445 35.1226ZM143.404 44.2998C143.78 44.4365 144.349 44.5049 145.113 44.5049C145.876 44.5049 146.514 44.4137 147.027 44.2314V46.9658C146.788 47.0228 146.44 47.057 145.984 47.0684L144.908 47.1025C144.668 47.1025 144.486 47.1025 144.361 47.1025C142.162 47.1025 140.538 46.3848 139.49 44.9492C138.647 43.7871 138.226 42.249 138.226 40.335V31.978H135.696V30.3716L138.226 29.3633L139.046 24.9883H141.644V29.3633H147.112V31.978H141.644V40.3179C141.644 42.5509 142.23 43.8783 143.404 44.2998ZM159.588 32.0293C157.902 32.0293 156.398 32.6047 155.076 33.7554V47H151.658V21.5703H155.076V31.2603C156.922 29.8133 158.83 29.0898 160.801 29.0898C162.909 29.0898 164.453 29.7165 165.433 30.9697C166.458 32.2913 166.971 34.4219 166.971 37.3613V47H163.553V37.3613C163.553 34.5358 162.784 32.8496 161.246 32.3027C160.756 32.1204 160.203 32.0293 159.588 32.0293ZM180.301 47.2734C173.852 47.2734 170.628 44.1232 170.628 37.8228C170.628 35.1112 171.522 32.9408 173.311 31.3115C174.917 29.8304 176.752 29.0898 178.814 29.0898C181.058 29.0898 182.813 29.8418 184.078 31.3457C185.251 32.7471 185.838 34.6213 185.838 36.9683V38.3013H174.183C174.183 41.5256 175.499 43.4966 178.13 44.2144C178.757 44.3853 179.72 44.4707 181.019 44.4707C182.329 44.4707 183.611 44.2941 184.864 43.9409V46.8291C183.611 47.1253 182.09 47.2734 180.301 47.2734ZM182.42 35.7891C182.42 34.6953 182.118 33.7725 181.514 33.0205C180.808 32.1546 179.834 31.7217 178.592 31.7217C177.282 31.7217 176.216 32.1375 175.396 32.9692C174.644 33.744 174.268 34.6839 174.268 35.7891H182.42ZM200.809 32.4907C200.182 32.3084 199.43 32.2173 198.553 32.2173C197.687 32.2173 196.975 32.3084 196.417 32.4907C195.858 32.6616 195.368 32.8724 194.947 33.123C194.172 33.5788 193.608 34.0915 193.255 34.6611V47H189.837V29.3633H193.118L193.255 31.8071C194.109 30.7362 195.357 29.9329 196.998 29.3975C197.59 29.1924 198.268 29.0898 199.031 29.0898C199.795 29.0898 200.387 29.1468 200.809 29.2607V32.4907ZM221.658 26.2188H214.498V23.2109H232.237V26.2188H225.076V47H221.658V26.2188ZM244.217 32.0293C242.531 32.0293 241.027 32.6047 239.705 33.7554V47H236.287V21.5703H239.705V31.2603C241.551 29.8133 243.459 29.0898 245.43 29.0898C247.538 29.0898 249.082 29.7165 250.062 30.9697C251.087 32.2913 251.6 34.4219 251.6 37.3613V47H248.182V37.3613C248.182 34.5358 247.413 32.8496 245.875 32.3027C245.385 32.1204 244.832 32.0293 244.217 32.0293ZM264.93 47.2734C258.481 47.2734 255.257 44.1232 255.257 37.8228C255.257 35.1112 256.151 32.9408 257.94 31.3115C259.546 29.8304 261.381 29.0898 263.443 29.0898C265.687 29.0898 267.442 29.8418 268.707 31.3457C269.88 32.7471 270.467 34.6213 270.467 36.9683V38.3013H258.812C258.812 41.5256 260.127 43.4966 262.759 44.2144C263.386 44.3853 264.349 44.4707 265.647 44.4707C266.958 44.4707 268.239 44.2941 269.493 43.9409V46.8291C268.239 47.1253 266.718 47.2734 264.93 47.2734ZM267.049 35.7891C267.049 34.6953 266.747 33.7725 266.143 33.0205C265.437 32.1546 264.463 31.7217 263.221 31.7217C261.91 31.7217 260.845 32.1375 260.025 32.9692C259.273 33.744 258.897 34.6839 258.897 35.7891H267.049ZM285.438 32.4907C284.811 32.3084 284.059 32.2173 283.182 32.2173C282.316 32.2173 281.604 32.3084 281.045 32.4907C280.487 32.6616 279.997 32.8724 279.576 33.123C278.801 33.5788 278.237 34.0915 277.884 34.6611V47H274.466V29.3633H277.747L277.884 31.8071C278.738 30.7362 279.986 29.9329 281.626 29.3975C282.219 29.1924 282.897 29.0898 283.66 29.0898C284.424 29.0898 285.016 29.1468 285.438 29.2607V32.4907ZM289.607 43.8555C289.231 43.2061 288.93 42.4427 288.702 41.5654C288.485 40.6882 288.377 39.5431 288.377 38.1304C288.377 36.7176 288.679 35.4188 289.283 34.2339C289.898 33.0376 290.695 32.0578 291.675 31.2944C293.578 29.8247 295.942 29.0898 298.768 29.0898C300.237 29.0898 301.348 29.124 302.1 29.1924C302.1 29.1924 302.653 29.2493 303.758 29.3633V47H300.682L300.545 44.9663C299.861 45.8778 298.819 46.5557 297.417 47C296.882 47.1709 296.329 47.2563 295.76 47.2563C295.201 47.2563 294.649 47.1994 294.102 47.0854C293.555 46.9715 293.008 46.7835 292.461 46.5215C291.926 46.2594 291.413 45.9119 290.923 45.479C290.433 45.0347 289.995 44.4935 289.607 43.8555ZM300.34 31.8755C299.611 31.7843 298.882 31.7388 298.152 31.7388C297.435 31.7388 296.666 31.8698 295.845 32.1318C295.025 32.3825 294.324 32.7812 293.743 33.3281C292.535 34.4674 291.932 36.2049 291.932 38.5405C291.932 40.7508 292.45 42.3857 293.487 43.4453C294.273 44.2314 295.219 44.6245 296.324 44.6245C297.748 44.6245 298.921 44.1061 299.844 43.0693C300.072 42.8073 300.237 42.5737 300.34 42.3687V31.8755ZM312.901 53.8359H309.483V29.3633H312.559L312.696 31.3799C313.379 30.4684 314.428 29.7905 315.84 29.3462C316.387 29.1753 316.94 29.0898 317.498 29.0898C318.068 29.0898 318.626 29.1525 319.173 29.2778C319.72 29.3918 320.261 29.5854 320.796 29.8589C321.332 30.1209 321.845 30.4741 322.334 30.9185C322.824 31.3514 323.257 31.8926 323.633 32.542C324.454 33.9434 324.864 35.6808 324.864 37.7544C324.864 40.9217 323.77 43.3428 321.583 45.0176C319.646 46.5101 317.287 47.2563 314.507 47.2563H313.653C313.379 47.2563 313.129 47.2507 312.901 47.2393V53.8359ZM312.901 44.4707C313.22 44.5618 313.847 44.6074 314.781 44.6074C315.715 44.6074 316.592 44.4764 317.413 44.2144C318.233 43.9523 318.928 43.5479 319.498 43.001C320.705 41.8389 321.309 40.09 321.309 37.7544C321.309 35.5555 320.785 33.932 319.737 32.8838C318.962 32.109 318.016 31.7217 316.9 31.7217C315.499 31.7217 314.336 32.2401 313.414 33.2769C313.174 33.5389 313.003 33.7725 312.901 33.9775V44.4707ZM333.648 24.2363C333.648 24.8857 333.431 25.387 332.999 25.7402C332.577 26.082 332.047 26.2529 331.409 26.2529C330.771 26.2529 330.241 26.082 329.82 25.7402C329.41 25.387 329.205 24.8857 329.205 24.2363C329.205 23.5755 329.41 23.0742 329.82 22.7324C330.241 22.3906 330.771 22.2197 331.409 22.2197C332.047 22.2197 332.577 22.3906 332.999 22.7324C333.431 23.0742 333.648 23.5755 333.648 24.2363ZM329.649 29.3633H333.067V47H329.649V29.3633ZM346.688 47.2734C340.239 47.2734 337.015 44.1232 337.015 37.8228C337.015 35.1112 337.909 32.9408 339.698 31.3115C341.304 29.8304 343.139 29.0898 345.201 29.0898C347.445 29.0898 349.2 29.8418 350.464 31.3457C351.638 32.7471 352.225 34.6213 352.225 36.9683V38.3013H340.569C340.569 41.5256 341.885 43.4966 344.517 44.2144C345.144 44.3853 346.106 44.4707 347.405 44.4707C348.715 44.4707 349.997 44.2941 351.25 43.9409V46.8291C349.997 47.1253 348.476 47.2734 346.688 47.2734ZM348.807 35.7891C348.807 34.6953 348.505 33.7725 347.901 33.0205C347.194 32.1546 346.22 31.7217 344.979 31.7217C343.668 31.7217 342.603 32.1375 341.783 32.9692C341.031 33.744 340.655 34.6839 340.655 35.7891H348.807ZM360.308 47.2734C358.884 47.2734 357.443 47.1709 355.984 46.9658V43.9409C357.465 44.2941 358.969 44.4707 360.496 44.4707C363.549 44.4707 365.076 43.827 365.076 42.5396C365.076 42.0496 364.957 41.6851 364.717 41.4458C364.364 41.0698 363.806 40.6938 363.042 40.3179L360.547 39.1729C358.93 38.3639 357.881 37.7145 357.403 37.2246C356.503 36.3132 356.053 35.2308 356.053 33.9775C356.053 32.5648 356.708 31.4141 358.018 30.5254C359.431 29.5684 361.413 29.0898 363.965 29.0898C365.253 29.0898 366.552 29.181 367.862 29.3633V32.2856C366.426 32.0236 365.173 31.8926 364.102 31.8926C363.042 31.8926 362.216 31.9609 361.624 32.0977C361.043 32.2344 360.604 32.4053 360.308 32.6104C359.841 32.9294 359.607 33.3452 359.607 33.8579C359.607 34.3592 359.767 34.7694 360.086 35.0884C360.416 35.396 360.929 35.7321 361.624 36.0967L364.136 37.3101C365.777 38.1646 366.831 38.8197 367.298 39.2754C368.187 40.1413 368.631 41.2293 368.631 42.5396C368.631 43.9409 367.924 45.0688 366.512 45.9233C365.031 46.8234 362.963 47.2734 360.308 47.2734Z" fill="white"/>
<path d="M145.809 162.086C145.012 162.724 143.975 163.231 142.699 163.607C141.423 163.972 139.623 164.154 137.298 164.154C134.986 164.154 133.214 164.006 131.983 163.709V160.479C133.339 160.912 135.253 161.129 137.726 161.129C140.198 161.129 141.952 160.776 142.989 160.069C144.037 159.352 144.562 158.355 144.562 157.079C144.562 155.803 143.998 154.863 142.87 154.259C141.651 153.609 139.588 153.285 136.683 153.285H134.974V151.917L141.793 143.766H132.479V140.758H147.33V142.125L140.169 150.362V150.414C144.784 150.71 147.393 152.424 147.997 155.558C148.088 156.059 148.133 156.686 148.133 157.438C148.133 158.178 147.945 158.976 147.569 159.83C147.205 160.685 146.618 161.437 145.809 162.086ZM152.132 152.55C152.132 148.813 153.01 145.902 154.764 143.817C156.485 141.778 158.832 140.758 161.805 140.758C164.733 140.758 167.035 141.778 168.709 143.817C170.441 145.913 171.307 148.824 171.307 152.55C171.307 156.275 170.441 159.175 168.709 161.249C167.035 163.265 164.733 164.273 161.805 164.273C158.832 164.273 156.485 163.265 154.764 161.249C153.01 159.186 152.132 156.287 152.132 152.55ZM161.771 161.676C162.944 161.676 163.913 161.437 164.676 160.958C165.44 160.479 166.043 159.83 166.488 159.01C167.308 157.506 167.718 155.358 167.718 152.567C167.718 148.192 166.704 145.361 164.676 144.073C163.913 143.595 162.956 143.355 161.805 143.355C159.652 143.355 158.068 144.256 157.054 146.056C156.166 147.628 155.721 149.787 155.721 152.533C155.721 158.628 157.738 161.676 161.771 161.676ZM191.148 150.755L191.166 164H187.748V146.363H190.892L191.131 148.294C192.385 147.246 193.843 146.563 195.506 146.244C196.042 146.141 196.566 146.09 197.079 146.09C199.209 146.09 200.816 146.99 201.898 148.79C203.88 146.99 205.954 146.09 208.119 146.09C210.261 146.09 211.821 146.734 212.801 148.021C213.781 149.331 214.271 151.496 214.271 154.515V164H210.853V154.635C210.853 151.673 210.141 149.901 208.717 149.32C208.238 149.126 207.68 149.029 207.042 149.029C205.515 149.029 204.114 149.576 202.838 150.67V164H199.42V154.498C199.42 152.47 199.118 151.046 198.514 150.226C197.933 149.428 196.891 149.029 195.387 149.029C193.894 149.029 192.481 149.605 191.148 150.755ZM223.739 141.236C223.739 141.886 223.522 142.387 223.089 142.74C222.668 143.082 222.138 143.253 221.5 143.253C220.862 143.253 220.332 143.082 219.911 142.74C219.5 142.387 219.295 141.886 219.295 141.236C219.295 140.576 219.5 140.074 219.911 139.732C220.332 139.391 220.862 139.22 221.5 139.22C222.138 139.22 222.668 139.391 223.089 139.732C223.522 140.074 223.739 140.576 223.739 141.236ZM219.74 146.363H223.158V164H219.74V146.363ZM236.488 149.029C234.79 149.029 233.281 149.605 231.959 150.755V164H228.541V146.363H231.703L231.942 148.277C233.799 146.819 235.719 146.09 237.701 146.09C239.798 146.09 241.336 146.716 242.315 147.97C243.341 149.291 243.854 151.422 243.854 154.361V164H240.436V154.361C240.436 151.536 239.672 149.85 238.146 149.303C237.656 149.12 237.103 149.029 236.488 149.029ZM262.362 164.427C261.678 164.427 261.109 164.245 260.653 163.88C260.208 163.504 259.986 162.969 259.986 162.274C259.986 161.568 260.208 161.026 260.653 160.65C261.109 160.274 261.678 160.086 262.362 160.086C263.057 160.086 263.632 160.274 264.088 160.65C264.544 161.026 264.771 161.568 264.771 162.274C264.771 162.969 264.544 163.504 264.088 163.88C263.632 164.245 263.057 164.427 262.362 164.427ZM262.362 150.362C261.678 150.362 261.109 150.18 260.653 149.815C260.208 149.439 259.986 148.904 259.986 148.209C259.986 147.503 260.208 146.961 260.653 146.585C261.109 146.209 261.678 146.021 262.362 146.021C263.057 146.021 263.632 146.209 264.088 146.585C264.544 146.961 264.771 147.503 264.771 148.209C264.771 148.904 264.544 149.439 264.088 149.815C263.632 150.18 263.057 150.362 262.362 150.362ZM293.124 143.783H280.187V140.775H297.652V142.142L286.441 164H282.511L293.124 143.783ZM301.241 160.394C302.791 160.827 304.671 161.043 306.881 161.043C309.091 161.043 310.76 160.69 311.888 159.984C313.028 159.266 313.597 158.127 313.597 156.566C313.597 155.142 313.119 154.105 312.162 153.456C311.056 152.692 309.216 152.311 306.642 152.311H301.874V140.826H315.904V144.039H305.155V149.439H307.154C310.606 149.439 313.119 149.998 314.691 151.114C316.309 152.265 317.118 154.105 317.118 156.634C317.118 158.856 316.309 160.628 314.691 161.949C312.914 163.419 310.305 164.154 306.864 164.154C304.346 164.154 302.472 164.006 301.241 163.709V160.394ZM333.832 138.587H337.25V154.259L344.393 146.363H348.46L340.855 154.361L348.854 164H344.684L337.25 155.011V164H333.832V138.587Z" fill="#5B3724"/>
</g>
<defs>
<filter id="filter0_d_53_1090" x="2" y="0" width="479" height="288" filterUnits="userSpaceOnUse" color-interpolation-filters="sRGB">
<feFlood flood-opacity="0" result="BackgroundImageFix"/>
<feColorMatrix in="SourceAlpha" type="matrix" values="0 0 0 0 0 0 0 0 0 0 0 0 0 0 0 0 0 0 127 0" result="hardAlpha"/>
<feOffset dy="4"/>
<feGaussianBlur stdDeviation="2"/>
<feComposite in2="hardAlpha" operator="out"/>
<feColorMatrix type="matrix" values="0 0 0 0 0 0 0 0 0 0 0 0 0 0 0 0 0 0 0.25 0"/>
<feBlend mode="normal" in2="BackgroundImageFix" result="effect1_dropShadow_53_1090"/>
<feBlend mode="normal" in="SourceGraphic" in2="effect1_dropShadow_53_1090" result="shape"/>
</filter>
<filter id="filter1_d_53_1090" x="0" y="0" width="483" height="293" filterUnits="userSpaceOnUse" color-interpolation-filters="sRGB">
<feFlood flood-opacity="0" result="BackgroundImageFix"/>
<feColorMatrix in="SourceAlpha" type="matrix" values="0 0 0 0 0 0 0 0 0 0 0 0 0 0 0 0 0 0 127 0" result="hardAlpha"/>
<feOffset dy="7"/>
<feGaussianBlur stdDeviation="3"/>
<feComposite in2="hardAlpha" operator="out"/>
<feColorMatrix type="matrix" values="0 0 0 0 0 0 0 0 0 0 0 0 0 0 0 0 0 0 0.4 0"/>
<feBlend mode="normal" in2="BackgroundImageFix" result="effect1_dropShadow_53_1090"/>
<feBlend mode="normal" in="SourceGraphic" in2="effect1_dropShadow_53_1090" result="shape"/>
</filter>
</defs>
</svg>
