<svg width="483" height="293" viewBox="0 0 483 293" fill="none" xmlns="http://www.w3.org/2000/svg">
<g opacity="0.7" filter="url(#filter0_d_53_1104)">
<rect x="6" width="471" height="280" rx="30" fill="#AB875F"/>
</g>
<rect x="28" y="20" width="427" height="240" rx="30" fill="white"/>
<path d="M6 30C6 13.4315 19.4315 0 36 0H447C463.569 0 477 13.4315 477 30V73H6V30Z" fill="#C1A689"/>
<path d="M137.115 26.2188H129.954V23.2109H147.693V26.2188H140.533V47H137.115V26.2188ZM159.673 32.0293C157.987 32.0293 156.483 32.6047 155.162 33.7554V47H151.744V21.5703H155.162V31.2603C157.007 29.8133 158.916 29.0898 160.887 29.0898C162.994 29.0898 164.538 29.7165 165.518 30.9697C166.543 32.2913 167.056 34.4219 167.056 37.3613V47H163.638V37.3613C163.638 34.5358 162.869 32.8496 161.331 32.3027C160.841 32.1204 160.289 32.0293 159.673 32.0293ZM172.935 43.8555C172.559 43.2061 172.257 42.4427 172.029 41.5654C171.813 40.6882 171.705 39.5431 171.705 38.1304C171.705 36.7176 172.007 35.4188 172.61 34.2339C173.226 33.0376 174.023 32.0578 175.003 31.2944C176.906 29.8247 179.27 29.0898 182.095 29.0898C183.565 29.0898 184.676 29.124 185.428 29.1924C185.428 29.1924 185.98 29.2493 187.085 29.3633V47H184.009L183.873 44.9663C183.189 45.8778 182.146 46.5557 180.745 47C180.21 47.1709 179.657 47.2563 179.087 47.2563C178.529 47.2563 177.977 47.1994 177.43 47.0854C176.883 46.9715 176.336 46.7835 175.789 46.5215C175.254 46.2594 174.741 45.9119 174.251 45.479C173.761 45.0347 173.322 44.4935 172.935 43.8555ZM183.667 31.8755C182.938 31.7843 182.209 31.7388 181.48 31.7388C180.762 31.7388 179.993 31.8698 179.173 32.1318C178.353 32.3825 177.652 32.7812 177.071 33.3281C175.863 34.4674 175.259 36.2049 175.259 38.5405C175.259 40.7508 175.778 42.3857 176.814 43.4453C177.601 44.2314 178.546 44.6245 179.651 44.6245C181.076 44.6245 182.249 44.1061 183.172 43.0693C183.4 42.8073 183.565 42.5737 183.667 42.3687V31.8755ZM196.536 24.2363C196.536 24.8857 196.32 25.387 195.887 25.7402C195.465 26.082 194.935 26.2529 194.297 26.2529C193.659 26.2529 193.13 26.082 192.708 25.7402C192.298 25.387 192.093 24.8857 192.093 24.2363C192.093 23.5755 192.298 23.0742 192.708 22.7324C193.13 22.3906 193.659 22.2197 194.297 22.2197C194.935 22.2197 195.465 22.3906 195.887 22.7324C196.32 23.0742 196.536 23.5755 196.536 24.2363ZM192.537 29.3633H195.955V47H192.537V29.3633ZM212.823 23.2109H215.01L223.487 32.9521L231.929 23.2109H234.117V47H230.699V28.8848L229.69 30.252L223.487 37.481L217.283 30.269L216.241 28.9019V47H212.823V23.2109ZM240.03 43.8555C239.654 43.2061 239.352 42.4427 239.124 41.5654C238.908 40.6882 238.799 39.5431 238.799 38.1304C238.799 36.7176 239.101 35.4188 239.705 34.2339C240.32 33.0376 241.118 32.0578 242.098 31.2944C244 29.8247 246.364 29.0898 249.19 29.0898C250.66 29.0898 251.771 29.124 252.522 29.1924C252.522 29.1924 253.075 29.2493 254.18 29.3633V47H251.104L250.967 44.9663C250.284 45.8778 249.241 46.5557 247.84 47C247.304 47.1709 246.752 47.2563 246.182 47.2563C245.624 47.2563 245.071 47.1994 244.524 47.0854C243.978 46.9715 243.431 46.7835 242.884 46.5215C242.348 46.2594 241.836 45.9119 241.346 45.479C240.856 45.0347 240.417 44.4935 240.03 43.8555ZM250.762 31.8755C250.033 31.7843 249.304 31.7388 248.575 31.7388C247.857 31.7388 247.088 31.8698 246.268 32.1318C245.447 32.3825 244.747 32.7812 244.166 33.3281C242.958 34.4674 242.354 36.2049 242.354 38.5405C242.354 40.7508 242.872 42.3857 243.909 43.4453C244.695 44.2314 245.641 44.6245 246.746 44.6245C248.17 44.6245 249.344 44.1061 250.267 43.0693C250.494 42.8073 250.66 42.5737 250.762 42.3687V31.8755ZM263.973 47.2734C262.549 47.2734 261.107 47.1709 259.649 46.9658V43.9409C261.13 44.2941 262.634 44.4707 264.161 44.4707C267.214 44.4707 268.741 43.827 268.741 42.5396C268.741 42.0496 268.621 41.6851 268.382 41.4458C268.029 41.0698 267.47 40.6938 266.707 40.3179L264.212 39.1729C262.594 38.3639 261.546 37.7145 261.067 37.2246C260.167 36.3132 259.717 35.2308 259.717 33.9775C259.717 32.5648 260.372 31.4141 261.683 30.5254C263.095 29.5684 265.078 29.0898 267.63 29.0898C268.917 29.0898 270.216 29.181 271.526 29.3633V32.2856C270.091 32.0236 268.838 31.8926 267.767 31.8926C266.707 31.8926 265.881 31.9609 265.289 32.0977C264.708 32.2344 264.269 32.4053 263.973 32.6104C263.506 32.9294 263.272 33.3452 263.272 33.8579C263.272 34.3592 263.431 34.7694 263.75 35.0884C264.081 35.396 264.594 35.7321 265.289 36.0967L267.801 37.3101C269.441 38.1646 270.495 38.8197 270.962 39.2754C271.851 40.1413 272.295 41.2293 272.295 42.5396C272.295 43.9409 271.589 45.0688 270.176 45.9233C268.695 46.8234 266.627 47.2734 263.973 47.2734ZM281.473 47.2734C280.049 47.2734 278.607 47.1709 277.149 46.9658V43.9409C278.63 44.2941 280.134 44.4707 281.661 44.4707C284.714 44.4707 286.241 43.827 286.241 42.5396C286.241 42.0496 286.121 41.6851 285.882 41.4458C285.529 41.0698 284.97 40.6938 284.207 40.3179L281.712 39.1729C280.094 38.3639 279.046 37.7145 278.567 37.2246C277.667 36.3132 277.217 35.2308 277.217 33.9775C277.217 32.5648 277.872 31.4141 279.183 30.5254C280.595 29.5684 282.578 29.0898 285.13 29.0898C286.417 29.0898 287.716 29.181 289.026 29.3633V32.2856C287.591 32.0236 286.338 31.8926 285.267 31.8926C284.207 31.8926 283.381 31.9609 282.789 32.0977C282.208 32.2344 281.769 32.4053 281.473 32.6104C281.006 32.9294 280.772 33.3452 280.772 33.8579C280.772 34.3592 280.931 34.7694 281.25 35.0884C281.581 35.396 282.094 35.7321 282.789 36.0967L285.301 37.3101C286.941 38.1646 287.995 38.8197 288.462 39.2754C289.351 40.1413 289.795 41.2293 289.795 42.5396C289.795 43.9409 289.089 45.0688 287.676 45.9233C286.195 46.8234 284.127 47.2734 281.473 47.2734ZM295.435 43.8555C295.059 43.2061 294.757 42.4427 294.529 41.5654C294.313 40.6882 294.205 39.5431 294.205 38.1304C294.205 36.7176 294.507 35.4188 295.11 34.2339C295.726 33.0376 296.523 32.0578 297.503 31.2944C299.406 29.8247 301.77 29.0898 304.595 29.0898C306.065 29.0898 307.176 29.124 307.928 29.1924C307.928 29.1924 308.48 29.2493 309.585 29.3633V47H306.509L306.373 44.9663C305.689 45.8778 304.646 46.5557 303.245 47C302.71 47.1709 302.157 47.2563 301.587 47.2563C301.029 47.2563 300.477 47.1994 299.93 47.0854C299.383 46.9715 298.836 46.7835 298.289 46.5215C297.754 46.2594 297.241 45.9119 296.751 45.479C296.261 45.0347 295.822 44.4935 295.435 43.8555ZM306.167 31.8755C305.438 31.7843 304.709 31.7388 303.98 31.7388C303.262 31.7388 302.493 31.8698 301.673 32.1318C300.853 32.3825 300.152 32.7812 299.571 33.3281C298.363 34.4674 297.759 36.2049 297.759 38.5405C297.759 40.7508 298.278 42.3857 299.314 43.4453C300.101 44.2314 301.046 44.6245 302.151 44.6245C303.576 44.6245 304.749 44.1061 305.672 43.0693C305.9 42.8073 306.065 42.5737 306.167 42.3687V31.8755ZM325.086 53.7334C324.095 53.984 322.819 54.1094 321.258 54.1094C319.708 54.1094 318.575 53.9954 317.857 53.7676V50.7256C318.757 51.113 319.856 51.3066 321.155 51.3066C322.465 51.318 323.428 51.2326 324.043 51.0503C324.659 50.868 325.143 50.5718 325.496 50.1616C326.134 49.4211 326.453 48.0824 326.453 46.1455V45.2397C325.587 46.1056 324.448 46.7095 323.035 47.0513C322.465 47.188 321.896 47.2563 321.326 47.2563C320.757 47.2563 320.198 47.1937 319.651 47.0684C319.116 46.943 318.58 46.7437 318.045 46.4702C317.509 46.1854 316.997 45.8208 316.507 45.3765C316.017 44.9207 315.584 44.3568 315.208 43.6846C314.365 42.2262 313.943 40.4318 313.943 38.3013C313.921 36.3302 314.49 34.5985 315.652 33.106C316.655 31.8071 318.034 30.7988 319.788 30.0811C321.383 29.4202 323.109 29.0898 324.966 29.0898C326.823 29.0898 328.458 29.181 329.871 29.3633V46.1455C329.871 50.4066 328.276 52.9359 325.086 53.7334ZM326.453 31.8584C325.724 31.7673 325.006 31.7217 324.3 31.7217C323.593 31.7217 322.802 31.8527 321.924 32.1147C321.047 32.3768 320.278 32.7756 319.617 33.311C318.17 34.4845 317.447 36.1479 317.447 38.3013C317.447 40.6369 318.011 42.3402 319.139 43.4111C319.982 44.2201 321.013 44.6245 322.232 44.6245C323.702 44.6245 324.938 44.1061 325.94 43.0693C326.18 42.8073 326.351 42.5737 326.453 42.3687V31.8584ZM343.697 47.2734C337.248 47.2734 334.024 44.1232 334.024 37.8228C334.024 35.1112 334.918 32.9408 336.707 31.3115C338.313 29.8304 340.148 29.0898 342.21 29.0898C344.454 29.0898 346.209 29.8418 347.474 31.3457C348.647 32.7471 349.234 34.6213 349.234 36.9683V38.3013H337.579C337.579 41.5256 338.895 43.4966 341.526 44.2144C342.153 44.3853 343.116 44.4707 344.415 44.4707C345.725 44.4707 347.007 44.2941 348.26 43.9409V46.8291C347.007 47.1253 345.486 47.2734 343.697 47.2734ZM345.816 35.7891C345.816 34.6953 345.514 33.7725 344.91 33.0205C344.204 32.1546 343.23 31.7217 341.988 31.7217C340.678 31.7217 339.612 32.1375 338.792 32.9692C338.04 33.744 337.664 34.6839 337.664 35.7891H345.816Z" fill="white"/>
<path d="M133.692 102.261C132.599 101.919 131.271 101.749 129.71 101.749C128.15 101.749 126.834 101.948 125.763 102.347C124.692 102.734 123.803 103.281 123.097 103.987C121.707 105.366 121.012 107.246 121.012 109.627C122.333 108.659 123.906 107.998 125.729 107.645C126.367 107.531 127.153 107.474 128.087 107.474C129.021 107.474 129.984 107.633 130.975 107.952C131.978 108.26 132.838 108.715 133.556 109.319C135.048 110.607 135.794 112.418 135.794 114.754C135.794 117.181 134.843 119.078 132.94 120.445C131.243 121.664 129.215 122.273 126.856 122.273C123.837 122.273 121.524 121.282 119.918 119.3C118.368 117.409 117.594 114.777 117.594 111.404V110.362C117.594 106.853 118.699 104.033 120.909 101.902C123.097 99.806 125.985 98.7578 129.574 98.7578H130.616C131.983 98.7578 133.009 98.8205 133.692 98.9458V102.261ZM121.046 112.208C121.046 115.625 122.123 117.91 124.276 119.061C125.028 119.471 125.86 119.676 126.771 119.676C127.682 119.676 128.469 119.573 129.129 119.368C129.802 119.152 130.388 118.844 130.89 118.445C131.949 117.568 132.479 116.395 132.479 114.925C132.479 113.455 131.978 112.287 130.975 111.421C129.972 110.544 128.617 110.105 126.908 110.105C125.142 110.105 123.495 110.573 121.969 111.507C121.57 111.757 121.262 111.991 121.046 112.208ZM140.46 110.55C140.46 106.813 141.337 103.902 143.092 101.817C144.812 99.7775 147.159 98.7578 150.133 98.7578C153.061 98.7578 155.362 99.7775 157.037 101.817C158.769 103.913 159.635 106.824 159.635 110.55C159.635 114.275 158.769 117.175 157.037 119.249C155.362 121.265 153.061 122.273 150.133 122.273C147.159 122.273 144.812 121.265 143.092 119.249C141.337 117.186 140.46 114.287 140.46 110.55ZM150.099 119.676C151.272 119.676 152.241 119.437 153.004 118.958C153.767 118.479 154.371 117.83 154.815 117.01C155.636 115.506 156.046 113.358 156.046 110.567C156.046 106.192 155.032 103.361 153.004 102.073C152.241 101.595 151.284 101.355 150.133 101.355C147.979 101.355 146.396 102.256 145.382 104.056C144.493 105.628 144.049 107.787 144.049 110.533C144.049 116.628 146.065 119.676 150.099 119.676ZM179.476 108.755L179.493 122H176.075V104.363H179.22L179.459 106.294C180.712 105.246 182.171 104.563 183.834 104.244C184.369 104.141 184.894 104.09 185.406 104.09C187.537 104.09 189.143 104.99 190.226 106.79C192.208 104.99 194.282 104.09 196.446 104.09C198.588 104.09 200.149 104.734 201.129 106.021C202.109 107.331 202.599 109.496 202.599 112.515V122H199.181V112.635C199.181 109.673 198.469 107.901 197.044 107.32C196.566 107.126 196.008 107.029 195.37 107.029C193.843 107.029 192.442 107.576 191.166 108.67V122H187.748V112.498C187.748 110.47 187.446 109.046 186.842 108.226C186.261 107.428 185.218 107.029 183.714 107.029C182.222 107.029 180.809 107.605 179.476 108.755ZM212.066 99.2363C212.066 99.8857 211.85 100.387 211.417 100.74C210.995 101.082 210.466 101.253 209.828 101.253C209.19 101.253 208.66 101.082 208.238 100.74C207.828 100.387 207.623 99.8857 207.623 99.2363C207.623 98.5755 207.828 98.0742 208.238 97.7324C208.66 97.3906 209.19 97.2197 209.828 97.2197C210.466 97.2197 210.995 97.3906 211.417 97.7324C211.85 98.0742 212.066 98.5755 212.066 99.2363ZM208.067 104.363H211.485V122H208.067V104.363ZM224.815 107.029C223.118 107.029 221.608 107.605 220.287 108.755V122H216.869V104.363H220.03L220.27 106.277C222.127 104.819 224.046 104.09 226.029 104.09C228.125 104.09 229.663 104.716 230.643 105.97C231.668 107.291 232.181 109.422 232.181 112.361V122H228.763V112.361C228.763 109.536 228 107.85 226.473 107.303C225.983 107.12 225.431 107.029 224.815 107.029ZM262.345 122.427C261.661 122.427 261.091 122.245 260.636 121.88C260.191 121.504 259.969 120.969 259.969 120.274C259.969 119.568 260.191 119.026 260.636 118.65C261.091 118.274 261.661 118.086 262.345 118.086C263.04 118.086 263.615 118.274 264.071 118.65C264.527 119.026 264.754 119.568 264.754 120.274C264.754 120.969 264.527 121.504 264.071 121.88C263.615 122.245 263.04 122.427 262.345 122.427ZM262.345 108.362C261.661 108.362 261.091 108.18 260.636 107.815C260.191 107.439 259.969 106.904 259.969 106.209C259.969 105.503 260.191 104.961 260.636 104.585C261.091 104.209 261.661 104.021 262.345 104.021C263.04 104.021 263.615 104.209 264.071 104.585C264.527 104.961 264.754 105.503 264.754 106.209C264.754 106.904 264.527 107.439 264.071 107.815C263.615 108.18 263.04 108.362 262.345 108.362ZM281.28 99.2363C283.274 98.9173 285.017 98.7578 286.51 98.7578C288.014 98.7578 289.284 98.866 290.321 99.0825C291.369 99.299 292.252 99.5895 292.97 99.9541C293.699 100.307 294.286 100.712 294.73 101.167C295.174 101.623 295.516 102.096 295.755 102.586C296.154 103.383 296.354 104.215 296.354 105.081C296.354 105.947 296.222 106.739 295.96 107.457C295.71 108.163 295.345 108.881 294.867 109.61C294.388 110.339 293.801 111.097 293.106 111.883L290.782 114.446L286.339 118.992H296.336V122H280.699V120.428L287.928 113.096L290.235 110.652C291.523 109.24 292.332 108.043 292.662 107.063C292.844 106.539 292.936 106.044 292.936 105.577C292.936 105.098 292.867 104.648 292.73 104.227C292.594 103.805 292.303 103.418 291.859 103.064C290.822 102.221 289.181 101.8 286.937 101.8C284.693 101.8 282.807 102.039 281.28 102.518V99.2363ZM300.934 110.55C300.934 106.813 301.811 103.902 303.565 101.817C305.286 99.7775 307.633 98.7578 310.606 98.7578C313.535 98.7578 315.836 99.7775 317.511 101.817C319.243 103.913 320.108 106.824 320.108 110.55C320.108 114.275 319.243 117.175 317.511 119.249C315.836 121.265 313.535 122.273 310.606 122.273C307.633 122.273 305.286 121.265 303.565 119.249C301.811 117.186 300.934 114.287 300.934 110.55ZM310.572 119.676C311.746 119.676 312.714 119.437 313.478 118.958C314.241 118.479 314.845 117.83 315.289 117.01C316.109 115.506 316.52 113.358 316.52 110.567C316.52 106.192 315.506 103.361 313.478 102.073C312.714 101.595 311.757 101.355 310.606 101.355C308.453 101.355 306.869 102.256 305.855 104.056C304.967 105.628 304.522 107.787 304.522 110.533C304.522 116.628 306.539 119.676 310.572 119.676ZM324.278 110.55C324.278 106.813 325.156 103.902 326.91 101.817C328.631 99.7775 330.978 98.7578 333.951 98.7578C336.879 98.7578 339.181 99.7775 340.855 101.817C342.587 103.913 343.453 106.824 343.453 110.55C343.453 114.275 342.587 117.175 340.855 119.249C339.181 121.265 336.879 122.273 333.951 122.273C330.978 122.273 328.631 121.265 326.91 119.249C325.156 117.186 324.278 114.287 324.278 110.55ZM333.917 119.676C335.09 119.676 336.059 119.437 336.822 118.958C337.586 118.479 338.189 117.83 338.634 117.01C339.454 115.506 339.864 113.358 339.864 110.567C339.864 106.192 338.85 103.361 336.822 102.073C336.059 101.595 335.102 101.355 333.951 101.355C331.798 101.355 330.214 102.256 329.2 104.056C328.312 105.628 327.867 107.787 327.867 110.533C327.867 116.628 329.884 119.676 333.917 119.676ZM348.409 96.5874H351.827V112.259L358.971 104.363H363.038L355.433 112.361L363.431 122H359.261L351.827 113.011V122H348.409V96.5874ZM120.875 162.787C121.969 163.129 123.296 163.3 124.857 163.3C126.418 163.3 127.734 163.106 128.805 162.719C129.876 162.32 130.764 161.767 131.471 161.061C132.861 159.682 133.556 157.803 133.556 155.421C132.234 156.39 130.662 157.051 128.839 157.404C128.201 157.518 127.415 157.575 126.48 157.575C125.546 157.575 124.578 157.421 123.575 157.113C122.584 156.794 121.729 156.333 121.012 155.729C119.519 154.442 118.773 152.63 118.773 150.294C118.773 147.868 119.724 145.971 121.627 144.604C123.325 143.384 125.353 142.775 127.711 142.775C130.73 142.775 133.043 143.766 134.649 145.749C136.199 147.64 136.974 150.272 136.974 153.644V154.687C136.974 158.196 135.868 161.015 133.658 163.146C131.471 165.242 128.583 166.291 124.994 166.291H123.951C122.584 166.291 121.559 166.228 120.875 166.103V162.787ZM133.521 152.841C133.521 149.423 132.445 147.139 130.292 145.988C129.54 145.578 128.708 145.373 127.796 145.373C126.885 145.373 126.093 145.481 125.421 145.697C124.76 145.902 124.179 146.204 123.678 146.603C122.618 147.48 122.088 148.654 122.088 150.124C122.088 151.593 122.59 152.767 123.592 153.644C124.595 154.51 125.951 154.943 127.66 154.943C129.426 154.943 131.072 154.476 132.599 153.542C132.997 153.291 133.305 153.057 133.521 152.841ZM141.913 154.55C141.913 150.813 142.79 147.902 144.544 145.817C146.265 143.778 148.612 142.758 151.585 142.758C154.514 142.758 156.815 143.778 158.49 145.817C160.222 147.913 161.087 150.824 161.087 154.55C161.087 158.275 160.222 161.175 158.49 163.249C156.815 165.265 154.514 166.273 151.585 166.273C148.612 166.273 146.265 165.265 144.544 163.249C142.79 161.186 141.913 158.287 141.913 154.55ZM151.551 163.676C152.725 163.676 153.693 163.437 154.457 162.958C155.22 162.479 155.824 161.83 156.268 161.01C157.088 159.506 157.499 157.358 157.499 154.567C157.499 150.192 156.485 147.361 154.457 146.073C153.693 145.595 152.736 145.355 151.585 145.355C149.432 145.355 147.848 146.256 146.834 148.056C145.946 149.628 145.501 151.787 145.501 154.533C145.501 160.628 147.518 163.676 151.551 163.676ZM180.929 152.755L180.946 166H177.528V148.363H180.672L180.912 150.294C182.165 149.246 183.623 148.563 185.287 148.244C185.822 148.141 186.346 148.09 186.859 148.09C188.989 148.09 190.596 148.99 191.678 150.79C193.661 148.99 195.734 148.09 197.899 148.09C200.041 148.09 201.602 148.734 202.582 150.021C203.561 151.331 204.051 153.496 204.051 156.515V166H200.633V156.635C200.633 153.673 199.921 151.901 198.497 151.32C198.019 151.126 197.46 151.029 196.822 151.029C195.296 151.029 193.894 151.576 192.618 152.67V166H189.2V156.498C189.2 154.47 188.898 153.046 188.294 152.226C187.713 151.428 186.671 151.029 185.167 151.029C183.674 151.029 182.262 151.605 180.929 152.755ZM213.519 143.236C213.519 143.886 213.303 144.387 212.87 144.74C212.448 145.082 211.918 145.253 211.28 145.253C210.642 145.253 210.112 145.082 209.691 144.74C209.281 144.387 209.076 143.886 209.076 143.236C209.076 142.576 209.281 142.074 209.691 141.732C210.112 141.391 210.642 141.22 211.28 141.22C211.918 141.22 212.448 141.391 212.87 141.732C213.303 142.074 213.519 142.576 213.519 143.236ZM209.52 148.363H212.938V166H209.52V148.363ZM226.268 151.029C224.57 151.029 223.061 151.605 221.739 152.755V166H218.321V148.363H221.483L221.722 150.277C223.579 148.819 225.499 148.09 227.481 148.09C229.578 148.09 231.116 148.716 232.096 149.97C233.121 151.291 233.634 153.422 233.634 156.361V166H230.216V156.361C230.216 153.536 229.452 151.85 227.926 151.303C227.436 151.12 226.883 151.029 226.268 151.029ZM263.797 166.427C263.114 166.427 262.544 166.245 262.088 165.88C261.644 165.504 261.422 164.969 261.422 164.274C261.422 163.568 261.644 163.026 262.088 162.65C262.544 162.274 263.114 162.086 263.797 162.086C264.492 162.086 265.068 162.274 265.523 162.65C265.979 163.026 266.207 163.568 266.207 164.274C266.207 164.969 265.979 165.504 265.523 165.88C265.068 166.245 264.492 166.427 263.797 166.427ZM263.797 152.362C263.114 152.362 262.544 152.18 262.088 151.815C261.644 151.439 261.422 150.904 261.422 150.209C261.422 149.503 261.644 148.961 262.088 148.585C262.544 148.209 263.114 148.021 263.797 148.021C264.492 148.021 265.068 148.209 265.523 148.585C265.979 148.961 266.207 149.503 266.207 150.209C266.207 150.904 265.979 151.439 265.523 151.815C265.068 152.18 264.492 152.362 263.797 152.362ZM282.733 143.236C284.727 142.917 286.47 142.758 287.962 142.758C289.466 142.758 290.737 142.866 291.773 143.083C292.822 143.299 293.705 143.59 294.422 143.954C295.152 144.307 295.738 144.712 296.183 145.167C296.627 145.623 296.969 146.096 297.208 146.586C297.607 147.383 297.806 148.215 297.806 149.081C297.806 149.947 297.675 150.739 297.413 151.457C297.162 152.163 296.798 152.881 296.319 153.61C295.841 154.339 295.254 155.097 294.559 155.883L292.235 158.446L287.792 162.992H297.789V166H282.152V164.428L289.381 157.096L291.688 154.652C292.975 153.24 293.784 152.043 294.115 151.063C294.297 150.539 294.388 150.044 294.388 149.577C294.388 149.098 294.32 148.648 294.183 148.227C294.046 147.805 293.756 147.418 293.312 147.064C292.275 146.221 290.634 145.8 288.39 145.8C286.145 145.8 284.26 146.039 282.733 146.518V143.236ZM302.677 162.394C304.226 162.827 306.106 163.043 308.316 163.043C310.527 163.043 312.196 162.69 313.324 161.984C314.463 161.266 315.033 160.127 315.033 158.566C315.033 157.142 314.554 156.105 313.597 155.456C312.492 154.692 310.652 154.311 308.077 154.311H303.309V142.826H317.34V146.039H306.59V151.439H308.59C312.042 151.439 314.554 151.998 316.126 153.114C317.744 154.265 318.553 156.105 318.553 158.634C318.553 160.856 317.744 162.628 316.126 163.949C314.349 165.419 311.74 166.154 308.299 166.154C305.781 166.154 303.907 166.006 302.677 165.709V162.394ZM322.826 154.55C322.826 150.813 323.703 147.902 325.458 145.817C327.178 143.778 329.525 142.758 332.499 142.758C335.427 142.758 337.728 143.778 339.403 145.817C341.135 147.913 342 150.824 342 154.55C342 158.275 341.135 161.175 339.403 163.249C337.728 165.265 335.427 166.273 332.499 166.273C329.525 166.273 327.178 165.265 325.458 163.249C323.703 161.186 322.826 158.287 322.826 154.55ZM332.464 163.676C333.638 163.676 334.606 163.437 335.37 162.958C336.133 162.479 336.737 161.83 337.181 161.01C338.001 159.506 338.412 157.358 338.412 154.567C338.412 150.192 337.398 147.361 335.37 146.073C334.606 145.595 333.649 145.355 332.499 145.355C330.345 145.355 328.762 146.256 327.748 148.056C326.859 149.628 326.415 151.787 326.415 154.533C326.415 160.628 328.431 163.676 332.464 163.676ZM346.957 140.587H350.375V156.259L357.518 148.363H361.585L353.98 156.361L361.979 166H357.809L350.375 157.011V166H346.957V140.587ZM123.319 191.458L117.184 195.645V192.192L124.823 186.758H126.72V210H123.319V191.458ZM132.462 187.236C134.456 186.917 136.199 186.758 137.691 186.758C139.195 186.758 140.466 186.866 141.502 187.083C142.551 187.299 143.434 187.59 144.151 187.954C144.881 188.307 145.467 188.712 145.912 189.167C146.356 189.623 146.698 190.096 146.937 190.586C147.336 191.383 147.535 192.215 147.535 193.081C147.535 193.947 147.404 194.739 147.142 195.457C146.891 196.163 146.527 196.881 146.048 197.61C145.57 198.339 144.983 199.097 144.288 199.883L141.964 202.446L137.521 206.992H147.518V210H131.881V208.428L139.11 201.096L141.417 198.652C142.704 197.24 143.513 196.043 143.844 195.063C144.026 194.539 144.117 194.044 144.117 193.577C144.117 193.098 144.049 192.648 143.912 192.227C143.775 191.805 143.485 191.418 143.041 191.064C142.004 190.221 140.363 189.8 138.119 189.8C135.874 189.8 133.989 190.039 132.462 190.518V187.236ZM152.115 198.55C152.115 194.813 152.993 191.902 154.747 189.817C156.467 187.778 158.814 186.758 161.788 186.758C164.716 186.758 167.018 187.778 168.692 189.817C170.424 191.913 171.29 194.824 171.29 198.55C171.29 202.275 170.424 205.175 168.692 207.249C167.018 209.265 164.716 210.273 161.788 210.273C158.814 210.273 156.467 209.265 154.747 207.249C152.993 205.186 152.115 202.287 152.115 198.55ZM161.754 207.676C162.927 207.676 163.896 207.437 164.659 206.958C165.423 206.479 166.026 205.83 166.471 205.01C167.291 203.506 167.701 201.358 167.701 198.567C167.701 194.192 166.687 191.361 164.659 190.073C163.896 189.595 162.939 189.355 161.788 189.355C159.635 189.355 158.051 190.256 157.037 192.056C156.148 193.628 155.704 195.787 155.704 198.533C155.704 204.628 157.721 207.676 161.754 207.676ZM191.131 196.755L191.148 210H187.73V192.363H190.875L191.114 194.294C192.368 193.246 193.826 192.563 195.489 192.244C196.025 192.141 196.549 192.09 197.062 192.09C199.192 192.09 200.799 192.99 201.881 194.79C203.863 192.99 205.937 192.09 208.102 192.09C210.243 192.09 211.804 192.734 212.784 194.021C213.764 195.331 214.254 197.496 214.254 200.515V210H210.836V200.635C210.836 197.673 210.124 195.901 208.7 195.32C208.221 195.126 207.663 195.029 207.025 195.029C205.498 195.029 204.097 195.576 202.821 196.67V210H199.403V200.498C199.403 198.47 199.101 197.046 198.497 196.226C197.916 195.428 196.874 195.029 195.37 195.029C193.877 195.029 192.464 195.605 191.131 196.755ZM223.722 187.236C223.722 187.886 223.505 188.387 223.072 188.74C222.651 189.082 222.121 189.253 221.483 189.253C220.845 189.253 220.315 189.082 219.894 188.74C219.483 188.387 219.278 187.886 219.278 187.236C219.278 186.576 219.483 186.074 219.894 185.732C220.315 185.391 220.845 185.22 221.483 185.22C222.121 185.22 222.651 185.391 223.072 185.732C223.505 186.074 223.722 186.576 223.722 187.236ZM219.723 192.363H223.141V210H219.723V192.363ZM236.471 195.029C234.773 195.029 233.264 195.605 231.942 196.755V210H228.524V192.363H231.686L231.925 194.277C233.782 192.819 235.702 192.09 237.684 192.09C239.78 192.09 241.319 192.716 242.298 193.97C243.324 195.291 243.836 197.422 243.836 200.361V210H240.418V200.361C240.418 197.536 239.655 195.85 238.128 195.303C237.639 195.12 237.086 195.029 236.471 195.029ZM262.345 210.427C261.661 210.427 261.091 210.245 260.636 209.88C260.191 209.504 259.969 208.969 259.969 208.274C259.969 207.568 260.191 207.026 260.636 206.65C261.091 206.274 261.661 206.086 262.345 206.086C263.04 206.086 263.615 206.274 264.071 206.65C264.527 207.026 264.754 207.568 264.754 208.274C264.754 208.969 264.527 209.504 264.071 209.88C263.615 210.245 263.04 210.427 262.345 210.427ZM262.345 196.362C261.661 196.362 261.091 196.18 260.636 195.815C260.191 195.439 259.969 194.904 259.969 194.209C259.969 193.503 260.191 192.961 260.636 192.585C261.091 192.209 261.661 192.021 262.345 192.021C263.04 192.021 263.615 192.209 264.071 192.585C264.527 192.961 264.754 193.503 264.754 194.209C264.754 194.904 264.527 195.439 264.071 195.815C263.615 196.18 263.04 196.362 262.345 196.362ZM294.61 208.086C293.813 208.724 292.776 209.231 291.5 209.607C290.224 209.972 288.424 210.154 286.1 210.154C283.787 210.154 282.015 210.006 280.785 209.709V206.479C282.14 206.912 284.055 207.129 286.527 207.129C288.999 207.129 290.754 206.776 291.791 206.069C292.839 205.352 293.363 204.355 293.363 203.079C293.363 201.803 292.799 200.863 291.671 200.259C290.452 199.609 288.39 199.285 285.484 199.285H283.775V197.917L290.594 189.766H281.28V186.758H296.131V188.125L288.971 196.362V196.414C293.585 196.71 296.194 198.424 296.798 201.558C296.889 202.059 296.935 202.686 296.935 203.438C296.935 204.178 296.747 204.976 296.371 205.83C296.006 206.685 295.419 207.437 294.61 208.086ZM300.934 198.55C300.934 194.813 301.811 191.902 303.565 189.817C305.286 187.778 307.633 186.758 310.606 186.758C313.535 186.758 315.836 187.778 317.511 189.817C319.243 191.913 320.108 194.824 320.108 198.55C320.108 202.275 319.243 205.175 317.511 207.249C315.836 209.265 313.535 210.273 310.606 210.273C307.633 210.273 305.286 209.265 303.565 207.249C301.811 205.186 300.934 202.287 300.934 198.55ZM310.572 207.676C311.746 207.676 312.714 207.437 313.478 206.958C314.241 206.479 314.845 205.83 315.289 205.01C316.109 203.506 316.52 201.358 316.52 198.567C316.52 194.192 315.506 191.361 313.478 190.073C312.714 189.595 311.757 189.355 310.606 189.355C308.453 189.355 306.869 190.256 305.855 192.056C304.967 193.628 304.522 195.787 304.522 198.533C304.522 204.628 306.539 207.676 310.572 207.676ZM324.278 198.55C324.278 194.813 325.156 191.902 326.91 189.817C328.631 187.778 330.978 186.758 333.951 186.758C336.879 186.758 339.181 187.778 340.855 189.817C342.587 191.913 343.453 194.824 343.453 198.55C343.453 202.275 342.587 205.175 340.855 207.249C339.181 209.265 336.879 210.273 333.951 210.273C330.978 210.273 328.631 209.265 326.91 207.249C325.156 205.186 324.278 202.287 324.278 198.55ZM333.917 207.676C335.09 207.676 336.059 207.437 336.822 206.958C337.586 206.479 338.189 205.83 338.634 205.01C339.454 203.506 339.864 201.358 339.864 198.567C339.864 194.192 338.85 191.361 336.822 190.073C336.059 189.595 335.102 189.355 333.951 189.355C331.798 189.355 330.214 190.256 329.2 192.056C328.312 193.628 327.867 195.787 327.867 198.533C327.867 204.628 329.884 207.676 333.917 207.676ZM348.409 184.587H351.827V200.259L358.971 192.363H363.038L355.433 200.361L363.431 210H359.261L351.827 201.011V210H348.409V184.587Z" fill="#5B3724"/>
<defs>
<filter id="filter0_d_53_1104" x="0" y="0" width="483" height="293" filterUnits="userSpaceOnUse" color-interpolation-filters="sRGB">
<feFlood flood-opacity="0" result="BackgroundImageFix"/>
<feColorMatrix in="SourceAlpha" type="matrix" values="0 0 0 0 0 0 0 0 0 0 0 0 0 0 0 0 0 0 127 0" result="hardAlpha"/>
<feOffset dy="7"/>
<feGaussianBlur stdDeviation="3"/>
<feComposite in2="hardAlpha" operator="out"/>
<feColorMatrix type="matrix" values="0 0 0 0 0 0 0 0 0 0 0 0 0 0 0 0 0 0 0.4 0"/>
<feBlend mode="normal" in2="BackgroundImageFix" result="effect1_dropShadow_53_1104"/>
<feBlend mode="normal" in="SourceGraphic" in2="effect1_dropShadow_53_1104" result="shape"/>
</filter>
</defs>
</svg>
